<svg width="20" height="20" viewBox="0 0 40 40" fill="none" xmlns="http://www.w3.org/2000/svg">
<path d="M20 0C8.95433 0 0 8.95433 0 20C0 31.0457 8.95433 40 20 40C31.0457 40 40 31.0457 40 20C40 8.95433 31.0457 0 20 0ZM20 36.0284C11.1478 36.0284 3.97163 28.8522 3.97163 20C3.97163 11.1478 11.1478 3.97163 20 3.97163C28.8522 3.97163 36.0284 11.1478 36.0284 20C36.0284 28.8522 28.8522 36.0284 20 36.0284Z" fill="#f7810d"/>
<path d="M27.9675 26.4805L21.5111 20.0242L27.9675 13.5679C28.3781 13.1572 28.3781 12.4916 27.9675 12.0809C27.5568 11.6703 26.8911 11.6703 26.4805 12.0809L20.0242 18.5372L13.5679 12.0809C13.1572 11.6703 12.4916 11.6703 12.0809 12.0809C11.6703 12.4916 11.6703 13.1572 12.0809 13.5679L18.5372 20.0242L12.0809 26.4805C11.6703 26.8911 11.6703 27.5568 12.0809 27.9675C12.4916 28.3781 13.1572 28.3781 13.5679 27.9675L20.0242 21.5111L26.4805 27.9675C26.8911 28.3781 27.5568 28.3781 27.9675 27.9675C28.3781 27.557 28.3781 26.8911 27.9675 26.4805Z" fill="#f7810d"/>
</svg>
